<svg xmlns="http://www.w3.org/2000/svg" id="Layer_1" data-name="Layer 1" viewBox="531.42 376.79 237.16 146.42"><defs><style>.cls-1{fill:#397fff;}.cls-2{fill:#6ecbfe;}.cls-3{fill:#0e294f;}.cls-4{fill:#2ea5ff;}.cls-5{fill:#fff;}</style></defs><path class="cls-1" d="M643.61,398.24a73.2,73.2,0,0,0,0,103.52,69.17,69.17,0,0,0,6.4,5.69,73.21,73.21,0,1,1,0-114.9A69.17,69.17,0,0,0,643.61,398.24Z"/><path class="cls-2" d="M677.83,450a72.91,72.91,0,0,1-9.25,35.64,44.15,44.15,0,0,1-18-35.64Z"/><path class="cls-3" d="M668.58,485.64A73.38,73.38,0,0,1,650,507.45a69.17,69.17,0,0,1-6.4-5.69,73.2,73.2,0,0,1,0-103.52,69.17,69.17,0,0,1,6.4-5.69,76.64,76.64,0,0,1,6.38,5.69A72.93,72.93,0,0,1,677.83,450H650.54A44.15,44.15,0,0,0,668.58,485.64Z"/><path class="cls-4" d="M768.58,450A73.2,73.2,0,0,1,650,507.45a73.38,73.38,0,0,0,18.57-21.81,44.15,44.15,0,0,1-18-35.64h27.29a72.93,72.93,0,0,0-21.44-51.76,76.64,76.64,0,0,0-6.38-5.69A73.21,73.21,0,0,1,768.58,450Z"/><path class="cls-5" d="M739,450a44.22,44.22,0,1,1-88.43,0Z"/></svg>